<?xml version="1.0" encoding="utf-8"?>
<!-- Generator: Adobe Illustrator 23.1.0, SVG Export Plug-In . SVG Version: 6.00 Build 0)  -->
<svg version="1.1" id="Layer_1" xmlns="http://www.w3.org/2000/svg" xmlns:xlink="http://www.w3.org/1999/xlink" x="0px" y="0px"
	 viewBox="0 0 1080 1080" style="enable-background:new 0 0 1080 1080;" xml:space="preserve">
<style type="text/css">
	.st0{fill:url(#SVGID_1_);}
	.st1{fill:url(#SVGID_2_);}
	.st2{fill:none;stroke:#FCFCFC;stroke-width:4;stroke-miterlimit:10;}
	.st3{fill:url(#SVGID_3_);}
	.st4{fill:url(#SVGID_4_);}
</style>
<linearGradient id="SVGID_1_" gradientUnits="userSpaceOnUse" x1="288.9022" y1="746.1196" x2="814" y2="746.1196">
	<stop  offset="0" style="stop-color:#FDFCFB"/>
	<stop  offset="1" style="stop-color:#FCFCFC"/>
</linearGradient>
<path class="st0" d="M792.5,537.84l-85.34,3.34c-10.62,0.33-18.74,9.57-17.73,20.14c0,0,0.95,226.79,1.5,236.14
	c0.57,9.8-0.2,19.99-7.76,20.05l-374.19,3.06c-9.98,0.08-18.08,8.1-18.25,18.08l-1.83,97.06c-0.18,10.49,8.45,19.01,18.94,18.69
	l488.32-2.6c10.41-0.31,18.49-9.21,17.8-19.6L811.42,555C810.77,545.11,802.4,537.53,792.5,537.84z"/>
<linearGradient id="SVGID_2_" gradientUnits="userSpaceOnUse" x1="266" y1="333.8804" x2="802.5489" y2="333.8804">
	<stop  offset="0" style="stop-color:#FDFCFB"/>
	<stop  offset="1" style="stop-color:#FCFCFC"/>
</linearGradient>
<path class="st1" d="M287.5,542.16l91.17-1.89c10.62-0.33,13.18-4.4,12.17-14.98c0,0,4.61-231.95,4.07-241.3
	c-0.57-9.8,0.2-19.99,7.76-20.05l380.97,5.22c9.98-0.08,16.91-6.38,17.08-16.36l1.83-108.51c0.18-10.49-8.45-19.01-18.94-18.69
	l-499.77,2.6c-10.41,0.31-18.49,9.21-17.8,19.6L268.58,525C269.23,534.89,277.6,542.47,287.5,542.16z"/>
<polyline class="st2" points="664.7,555.31 663.4,790.19 295.15,794.74 "/>
<linearGradient id="SVGID_3_" gradientUnits="userSpaceOnUse" x1="284.1311" y1="658.2051" x2="663.512" y2="658.2051">
	<stop  offset="0" style="stop-color:#FDFCFB"/>
	<stop  offset="1" style="stop-color:#FCFCFC"/>
</linearGradient>
<path class="st3" d="M284.41,626.78c-1.55,41.03,3.85,124.5,3.85,124.5c4.8,8.97,15.98,12.32,24.92,7.45l350.33-203.29H400.13
	c-7.48,0-14.85,1.8-21.49,5.26l-73.34,38.16C293.21,602.94,284.89,614.02,284.41,626.78z"/>
<polyline class="st2" points="417.1,532.59 421.91,293.53 795,296.91 "/>
<linearGradient id="SVGID_4_" gradientUnits="userSpaceOnUse" x1="417.204" y1="431.9388" x2="806.7548" y2="431.9388">
	<stop  offset="0" style="stop-color:#FDFCFB"/>
	<stop  offset="1" style="stop-color:#FCFCFC"/>
</linearGradient>
<path class="st4" d="M806.75,340c-5.07-8.15-15.57-11.02-24.07-6.56L417.2,532.54h242.43c6.26,0,12.46-1.26,18.23-3.72l112.66-47.94
	c6.16-2.78,10.36-8.59,11.14-15.3C806.58,423.71,806.75,340,806.75,340z"/>
</svg>
